<svg xmlns="http://www.w3.org/2000/svg" width="24" height="24" viewBox="0 0 256 256"><path fill="#ce7777" d="M92 106a26 26 0 1 0 26 26a26.1 26.1 0 0 0-26-26Zm0 40a14 14 0 1 1 14-14a14 14 0 0 1-14 14Zm72-40a26 26 0 1 0 26 26a26.1 26.1 0 0 0-26-26Zm0 40a14 14 0 1 1 14-14a14 14 0 0 1-14 14ZM128 18a98 98 0 0 0-54 179.8V216a14 14 0 0 0 14 14h80a14 14 0 0 0 14-14v-18.2A98 98 0 0 0 128 18Zm44.9 171.4a6 6 0 0 0-2.9 5.1V216a2 2 0 0 1-2 2h-18v-26a6 6 0 0 0-12 0v26h-20v-26a6 6 0 0 0-12 0v26H88a2 2 0 0 1-2-2v-21.5a6 6 0 0 0-2.9-5.1a86 86 0 1 1 89.8 0Z"/></svg>